<svg width="50" height="50" viewBox="0 0 50 50" fill="none" xmlns="http://www.w3.org/2000/svg">
<g clip-path="url(#clip0_61_3739)">
<path d="M25.0003 4.16675C13.4899 4.16675 4.167 13.4897 4.167 25.0001C4.16463 29.3736 5.53952 33.6368 8.09661 37.1848C10.6537 40.7329 14.2631 43.3856 18.4128 44.7667C19.4545 44.948 19.8441 44.323 19.8441 43.7751C19.8441 43.2813 19.817 41.6417 19.817 39.8959C14.5837 40.8605 13.2295 38.6209 12.8128 37.448C12.5774 36.848 11.5628 35.0001 10.6774 34.5042C9.94825 34.1147 8.90658 33.1501 10.6503 33.1251C12.292 33.098 13.4628 34.6355 13.8545 35.2605C15.7295 38.4105 18.7253 37.5251 19.9212 36.9792C20.1045 35.6251 20.6503 34.7147 21.2503 34.1938C16.6149 33.673 11.7712 31.8751 11.7712 23.9063C11.7712 21.6397 12.5774 19.7667 13.9066 18.3063C13.6982 17.7855 12.9691 15.6501 14.1149 12.7855C14.1149 12.7855 15.8587 12.2397 19.8441 14.923C21.54 14.4523 23.2923 14.2154 25.0524 14.2188C26.8232 14.2188 28.5941 14.4522 30.2607 14.9209C34.2441 12.2126 35.9899 12.7876 35.9899 12.7876C37.1357 15.6522 36.4066 17.7876 36.1982 18.3084C37.5253 19.7667 38.3337 21.6147 38.3337 23.9063C38.3337 31.9022 33.4649 33.673 28.8295 34.1938C29.5837 34.8438 30.2357 36.0938 30.2357 38.048C30.2357 40.8334 30.2087 43.073 30.2087 43.7772C30.2087 44.323 30.6003 44.973 31.642 44.7647C35.7775 43.3684 39.371 40.7105 41.9168 37.165C44.4626 33.6195 45.8325 29.3649 45.8337 25.0001C45.8337 13.4897 36.5107 4.16675 25.0003 4.16675Z" fill="#C4C4C4"/>
</g>
<defs>
<clipPath id="clip0_61_3739">
<rect width="50" height="50" fill="white"/>
</clipPath>
</defs>
</svg>
